<?xml version="1.0" encoding="utf-8"?>
<!-- Generator: Adobe Illustrator 23.0.6, SVG Export Plug-In . SVG Version: 6.00 Build 0)  -->
<svg version="1.1" id="Layer_1" xmlns="http://www.w3.org/2000/svg" xmlns:xlink="http://www.w3.org/1999/xlink" x="0px" y="0px"
	 viewBox="0 0 1011.1 844.9" style="enable-background:new 0 0 1011.1 844.9;" xml:space="preserve">
<style type="text/css">
	.st0{opacity:0.1;fill:#6C63FF;enable-background:new    ;}
	.st1{fill:#FFA340;}
	.st2{fill:#DB584D;}
	.st3{fill:#E03C2E;}
	.st4{fill:none;stroke:#444053;stroke-miterlimit:10;}
	.st5{fill:#6C63FF;}
	.st6{fill:#444053;}
	.st7{opacity:0.1;enable-background:new    ;}
	.st8{opacity:0.1;fill:#FFFFFF;enable-background:new    ;}
	.st9{opacity:0.1;fill:#FFD74E;enable-background:new    ;}
	.st10{opacity:0.1;fill:#8F52C1;enable-background:new    ;}
	.st11{opacity:0.1;}
	.st12{fill:#39CC8E;}
	.st13{opacity:0.1;fill:#DB584D;enable-background:new    ;}
	.st14{fill:#4E95FF;}
	.st15{fill:#EB5BE8;}
	.st16{fill:url(#SVGID_1_);}
	.st17{fill:#EFB7B9;}
	.st18{fill:#F7D27F;}
	.st19{fill:#4C4981;}
	.st20{fill:#925978;}
	.st21{fill:#FFFFFF;}
</style>
<title>balloons</title>
<path class="st0" d="M312.2,215c34.4-30.5,88.2-36.8,137.2-34.4c154,7.6,292.9,82,413.1,166c43.5,30.4,86.4,63.2,114.6,105.2
	c57.5,85.3,40.4,203.5-39.5,273.8c-27.2,23.9-60.2,42.3-94,58.5c-60.2,28.9-125.2,52.1-193.5,58.7c-48.7,4.7-98,0.9-146.5-5.7
	c-135.3-18.4-268.2-59-379.5-128.4c-48.8-30.5-94.9-68.3-115-117.6S1.8,479.5,51.7,450.3c20.6-12.1,45.3-17.5,69.4-22.6
	c35.5-7.5,71.7-15,103.7-30.3c33.1-15.8,72.3-46.4,65.8-81.4C283.6,278.5,278,245.5,312.2,215z"/>
<path class="st1" d="M291.9,785.9c0,0-35.2-29.7-50.2-0.6c0,0-4.3,3.9-1.7,9.1c0,0,1.5-1.9,4.7,1.6c1.2,1.2,2.5,2.3,3.9,3.2
	c1.9,1.2,4.2,1.8,6.4,1.6l0,0c0,0,13.6,3.4,30.3-10.5c0,0,5.8-1.5,6.3-2.5l-8.2-2c0,0-1.2,6.1-5.7,8.6c0,0,5.8-8.2,4.5-8.9
	c-0.2-0.2-4.4-0.8-4.4-0.8s-2.2,10.6-9.2,14.2c0,0,8.2-8.8,7.6-14.5l-6.3-0.7c0,0-1.7,11.3-9.6,15.7c0,0,8.3-9.6,8.2-15.8l-6.3,0.1
	c0,0-1.9,11-8.4,14.6c0,0,8.4-12,7-14.5c0,0-5.8,0.5-7.2,1.3c0,0-1.5,7.8-5.5,9.6c0,0,4.8-8.6,4-9.3c0,0-7.3,2.6-10.3,5.9
	c0,0,4.1-5.2,9.9-7c0,0-3.8-1.9-7.3-1.2c0,0,3.3-3.3,9.1,0.6c0,0,5.8-1.8,6.7-1.5c0,0-5.3-4.6-9.7-5.6c0,0,5.6-1.2,11.4,5.6l6.3-0.3
	c0,0-6.6-6.5-10.6-7.7c0,0,5.9-0.4,12.1,7.8l6.2,0.6c0,0-5.3-6-9.4-8.3c0,0,5.5,0.8,11.1,8.5l4.1,0.9c0,0-3.9-4.3-5.2-5.5
	c-1.2-1.1-1-1.6-1-1.6c3.3,1.7,6,4.2,7.9,7.4C283.4,784,291.7,786.4,291.9,785.9z"/>
<ellipse class="st0" cx="252.9" cy="810.8" rx="32.6" ry="5.5"/>
<path class="st2" d="M372.9,685.2c0,0-26-1.6-22.9,16.6c-0.3,1.9,0.6,3.8,2.3,4.7c0,0,0-1.3,2.7-0.9c0.9,0.1,1.9,0.2,2.8,0.1
	c1.3-0.1,2.5-0.6,3.5-1.4l0,0c0,0,7.3-3,10.1-14.9c0,0,2.1-2.6,2-3.3L369,688c0,0,1.5,3.2,0.3,5.8c0,0-0.1-5.7-1-5.5
	c-0.2,0-2.3,1.1-2.3,1.1s2.6,5.5,0.6,9.5c0,0,0.7-6.8-1.4-9.1l-3.1,1.8c0,0,3,5.7,1,10.3c0,0,0.5-7.1-1.6-9.9l-2.8,2.2
	c0,0,2.8,5.6,1.1,9.5c0,0-0.2-8.3-1.7-8.9c-1.1,0.9-2,1.9-2.8,3c0,0,1.9,4.1,0.7,6.2c0,0-0.7-5.5-1.3-5.5c0,0-2.4,3.7-2.7,6.2
	c0.1-2.3,0.8-4.6,2.1-6.5c-1.4,0.3-2.7,0.9-3.7,1.9c0,0,0.4-2.6,4.3-2.8c0,0,2-2.8,2.5-2.9c0,0-3.9-0.3-6.3,0.7c0,0,2.1-2.4,7-1.3
	l2.8-2.3c0,0-5.2-0.7-7.4,0.1c0,0,2.5-2.2,8.1-0.6l3-1.8c-2.3-0.5-4.7-0.7-7-0.6c0,0,2.8-1.5,7.9,0.1l2.1-1c0,0-3.2-0.6-4.2-0.7
	s-1-0.4-1-0.4c2-0.3,4.1-0.1,6.1,0.7C368.4,687.1,373,685.5,372.9,685.2z"/>
<ellipse class="st0" cx="355" cy="708.1" rx="18.4" ry="3.1"/>
<path class="st3" d="M204.7,695.1c0,0-21.1,23.2-1.7,34.1c1.5,1.7,4,2.3,6.1,1.4c0,0-1.2-1.1,1.2-3.2c0.9-0.8,1.6-1.6,2.3-2.5
	c0.9-1.3,1.3-2.8,1.3-4.3l0,0c0,0,2.7-9.1-6.3-20.8c0,0-0.8-3.9-1.6-4.4l-1.6,5.5c0,0,4.1,1,5.7,4.1c0,0-5.4-4.2-5.9-3.3
	c-0.1,0.2-0.7,3-0.7,3s7.1,1.8,9.4,6.6c0,0-5.8-5.8-9.6-5.6l-0.6,4.3c0,0,7.6,1.5,10.4,6.9c0,0-6.3-5.9-10.5-6l-0.1,4.3
	c0,0,7.4,1.6,9.7,6.1c0,0-8-6.1-9.7-5.1c0,0,0.2,3.9,0.7,5c0,0,5.3,1.3,6.4,4c0,0-5.7-3.5-6.2-2.9c0,0,1.6,5.1,3.8,7.2
	c-2.1-1.9-3.7-4.3-4.5-6.9c-0.8,1.5-1.2,3.2-1,5c0,0-2.1-2.3,0.6-6.2c0,0-1.1-4-0.8-4.6c0,0-3.3,3.5-4.1,6.5c0,0-0.7-3.8,4.1-7.6
	l0-4.3c0,0-4.6,4.3-5.5,7c0,0-0.1-4,5.6-8.1l0.6-4.2c0,0-4.2,3.4-5.9,6.2c0,0,0.7-3.7,6.1-7.3l0.7-2.7c0,0-3,2.6-3.8,3.3
	s-1.1,0.7-1.1,0.7c1.2-2.2,3-4,5.2-5.2C203.2,700.8,205,695.3,204.7,695.1z"/>
<ellipse class="st0" cx="198.1" cy="728.6" rx="22.2" ry="3.8"/>
<path class="st4" d="M483.7,193.3c-8.3,3.2-17.6,7.6-19.8,16.2c-0.7,3.3-0.5,6.8,0.5,10c2.5,8.4,8.2,15.6,15.9,19.8
	c9.5,5.1,21.3,5.4,30,11.8c5.3,3.9,8.9,9.7,10.1,16.2c0.5,2.7,0.5,5.5,1.5,8.1c2.7,6.9,11.1,9.6,18.5,10c3.6,0.2,7.5,0.2,10.2,2.5
	c1.1,1,2,2.2,2.7,3.5c5.8,9.2,11.7,19,11.8,29.9c0,8.5-3.6,16.6-7.8,24c-5.5,9.6-12.2,19.1-13.5,30.1c-1.5,13,5,25.5,5.8,38.6
	c0.8,14.1-4.9,27.7-15.4,37.1"/>
<path class="st1" d="M450.2,79.5c6.4,46.3,5.3,104.6-36.3,110.3c-41.6,5.7-107.9-43.3-114.3-89.6S321.8,11.7,363.4,6
	S443.9,33.2,450.2,79.5z"/>
<path class="st5" d="M437.6,206c0,0-6.8,3.1-7.8-3.5c-0.1-0.6-0.1-1.2-0.1-1.8c0-2.1-0.4-4.1-1.1-6c-0.3-0.7-0.5-1.3-0.9-2
	c-1.4-3-3.4-5.6-5.7-7.9l16-12.2c0,0-2.8,9.9-0.1,12.2c0.4,0.3,0.9,0.5,1.4,0.5c0.5,0,1-0.1,1.4-0.3c0.5-0.2,1-0.3,1.5-0.5
	c5.4-1.4,5,2.1,5,2.1C451.4,194.1,437.6,206,437.6,206z"/>
<path class="st6" d="M439.2,185.2l-10.7,9.5c-0.3-0.7-0.5-1.3-0.9-2c2.9-2.1,7.3-5.7,10.1-7.9C438.2,185.1,438.7,185.2,439.2,185.2z
	"/>
<path class="st5" d="M437.6,206c0,0-6.8,3.1-7.8-3.5c2.7-1,5.3-2.5,7.4-4.5c2.8-2.9,5.6-9.4,4.9-13.5c5.4-1.4,5,2.1,5,2.1
	C451.4,194.1,437.6,206,437.6,206z"/>
<path class="st7" d="M437.6,206c0,0-6.8,3.1-7.8-3.5c2.7-1,5.3-2.5,7.4-4.5c2.8-2.9,5.6-9.4,4.9-13.5c5.4-1.4,5,2.1,5,2.1
	C451.4,194.1,437.6,206,437.6,206z"/>
<path class="st8" d="M333.8,30.9c0,0-20.2,10.2-17.2,26.1c0,0,3.5-3.3,7-4.1c1.8-0.3,3.5-1,4.9-2.1
	C328.6,50.9,326.8,42.1,333.8,30.9z"/>
<path class="st5" d="M465.9,309.6c-0.8,5.4-2.4,10.7-4.7,15.7c-0.6,1.4-1.3,2.8-2,4.2c-18.8,36.1-71.2,71.4-110.2,66.1
	c-36.5-5-64.7-30.1-72.3-60.8c-0.4-1.5-0.7-3-1-4.6c-1.2-7-1.4-14.2-0.4-21.3c4.6-33.6,33-58.8,68.3-63.8c3.1-0.5,6.2-0.7,9.4-0.9
	c1.5-0.1,3.1-0.1,4.6-0.1c4,0,7.9,0.3,11.8,0.8c2.2,0.3,4.4,0.6,6.6,1c0.2,0,0.4,0.1,0.6,0.1c13.5,2,26.8,5.1,39.8,9.3
	c4,1.3,7.9,2.8,11.6,4.4c2.6,1.1,5.1,2.3,7.5,3.5c10.9,5.5,19.8,12.5,25.2,21.1c0.5,0.9,1,1.7,1.5,2.6l0.2,0.4
	c1.8,3.6,3,7.6,3.5,11.6C466.5,302.5,466.4,306.1,465.9,309.6z"/>
<path class="st9" d="M465.9,309.6c-0.8,5.4-2.4,10.7-4.7,15.7c-0.6,1.4-1.3,2.8-2,4.2c-18.8,36.1-71.2,71.4-110.2,66.1
	c-36.5-5-64.7-30.1-72.3-60.8c-0.4-1.5-0.7-3-1-4.6c-1.2-7-1.4-14.2-0.4-21.3c4.6-33.6,33-58.8,68.3-63.8c3.1-0.5,6.2-0.7,9.4-0.9
	c1.5-0.1,3.1-0.1,4.6-0.1c4,0,7.9,0.3,11.8,0.8c2.2,0.3,4.4,0.6,6.6,1c0.2,0,0.4,0.1,0.6,0.1c13.5,2,26.8,5.1,39.8,9.3
	c4,1.3,7.9,2.8,11.6,4.4c2.6,1.1,5.1,2.3,7.5,3.5c10.9,5.5,19.8,12.5,25.2,21.1c0.5,0.9,1,1.7,1.5,2.6l0.2,0.4
	c1.8,3.6,3,7.6,3.5,11.6C466.5,302.5,466.4,306.1,465.9,309.6z"/>
<path class="st5" d="M482.4,297.6c-0.6-0.1-1.2-0.2-1.8-0.4c-2-0.5-4.1-0.7-6.1-0.5c-0.7,0-1.5,0.1-2.2,0.3c-2.2,0.4-4.3,1-6.3,1.9
	c-1,0.4-1.9,0.9-2.8,1.4l-5.2-12.9l-0.1-0.2l-2.2-5.6c1.6,1,3.3,1.8,5.1,2.5c2.5,1,5.2,1.8,6.6,0.8c0.4-0.3,0.7-0.7,0.9-1.2
	c0.1-0.5,0.2-1,0.1-1.5c0-0.6,0-1.1,0-1.6c0.1-5.6,3.4-4.3,3.4-4.3c3.7-0.9,7.3,1.8,10.2,5.1c0.4,0.5,0.8,1,1.2,1.5
	c1.9,2.5,3.5,5.1,4.8,7.8C487.9,291.1,489,298.5,482.4,297.6z"/>
<path class="st6" d="M474.6,296.8c-0.7,0-1.5,0.1-2.2,0.3c-1-2.8-2.8-7-4.2-10.2c-0.1-0.2-0.2-0.5-0.3-0.7s-0.3-0.7-0.4-1
	c0.4-0.3,0.7-0.7,0.9-1.2l0.9,1.9l0.4,0.8L474.6,296.8z"/>
<path class="st5" d="M482.4,297.6c-0.2-2.9-1-5.8-2.4-8.4c-0.9-1.5-2.1-2.8-3.4-4c-0.4-0.4-0.8-0.7-1.2-1c-2-1.7-4.4-2.9-7-3.4
	c0.1-5.6,3.4-4.3,3.4-4.3c3.7-0.9,7.3,1.8,10.2,5.1c0.4,0.5,0.8,1,1.2,1.5c1.9,2.5,3.5,5.1,4.8,7.8
	C487.9,291.1,489,298.5,482.4,297.6z"/>
<path class="st7" d="M482.4,297.6c-0.2-2.9-1-5.8-2.4-8.4c-0.9-1.5-2.1-2.8-3.4-4c-0.4-0.4-0.8-0.7-1.2-1c-2-1.7-4.4-2.9-7-3.4
	c0.1-5.6,3.4-4.3,3.4-4.3c3.7-0.9,7.3,1.8,10.2,5.1c0.4,0.5,0.8,1,1.2,1.5c1.9,2.5,3.5,5.1,4.8,7.8
	C487.9,291.1,489,298.5,482.4,297.6z"/>
<path class="st8" d="M291.4,344.1c0,0,4.4,22.2,20.6,23.5c0,0-2.2-4.2-2-7.8c0.2-1.8,0-3.6-0.7-5.3
	C309.3,354.6,300.3,353.9,291.4,344.1z"/>
<path class="st5" d="M524.2,113.8c-8.1,18.6-18.6,38.3-31,53.4c-9.5,11.6-20.2,20.4-31.9,23.7c-5,1.5-10.3,1.8-15.5,1
	c-3.5-0.5-6.9-1.5-10.1-3c-22.7-9.9-42.8-40.6-51.6-73c-6.1-22.4-6.8-45.6,0.9-63.1C403.7,10,450.1-11,488.6,5.8
	S542.9,71,524.2,113.8z"/>
<path class="st10" d="M524.2,113.8c-8.1,18.6-18.6,38.3-31,53.4c-9.5,11.6-20.2,20.4-31.9,23.7c-5,1.5-10.3,1.8-15.5,1
	c-3.5-0.5-6.9-1.5-10.1-3c-22.7-9.9-42.8-40.6-51.6-73c-6.1-22.4-6.8-45.6,0.9-63.1C403.7,10,450.1-11,488.6,5.8
	S542.9,71,524.2,113.8z"/>
<path class="st5" d="M465.7,203.5c-0.3,8.6-18.3,11.6-18.3,11.6s-7.4-0.9-4.8-7.1c0.2-0.5,0.5-1.1,0.8-1.6c1.1-1.8,1.8-3.7,2.2-5.8
	c0.1-0.7,0.3-1.4,0.3-2.2c0.2-2.2,0.2-4.4-0.1-6.6c-0.1-1.1-0.3-2.1-0.6-3.1l20-2.1c-1.4,1.3-2.7,2.7-3.9,4.2
	c-1.7,2.1-3.1,4.5-2.6,6.1c0.2,0.5,0.5,0.9,1,1.2c0.4,0.3,0.9,0.4,1.3,0.5c0.5,0.1,1,0.2,1.5,0.4
	C467.8,200.8,465.7,203.5,465.7,203.5z"/>
<path class="st6" d="M459.6,198.2l-14,2.5c0.1-0.7,0.3-1.4,0.3-2.2c3.5-0.3,9.2-1,12.8-1.5C458.9,197.5,459.2,197.9,459.6,198.2z"/>
<path class="st5" d="M465.7,203.5c-0.3,8.6-18.3,11.6-18.3,11.6s-7.4-0.9-4.8-7.1c2.9,0.6,5.8,0.6,8.7,0c3.9-1,9.7-5.1,11.2-8.9
	C467.8,200.8,465.7,203.5,465.7,203.5z"/>
<path class="st7" d="M465.7,203.5c-0.3,8.6-18.3,11.6-18.3,11.6s-7.4-0.9-4.8-7.1c2.9,0.6,5.8,0.6,8.7,0c3.9-1,9.7-5.1,11.2-8.9
	C467.8,200.8,465.7,203.5,465.7,203.5z"/>
<path class="st8" d="M450.3,11.6c0,0-22.5-1.8-28.3,13.3c0,0,4.7-1,8.1,0.2c1.7,0.7,3.5,1,5.3,0.8C435.4,25.9,438.5,17.5,450.3,11.6
	z"/>
<g class="st11">
	<path d="M220.3,299.1c-0.2,3.6,2.1,7.8,2.1,7.8c-16.1-1.4-20.6-23.5-20.6-23.5c8.9,9.7,17.8,10.4,17.8,10.4
		C220.2,295.5,220.5,297.4,220.3,299.1z"/>
	<path d="M373.6,239.7l-7.5-18.6c1.6,1,3.3,1.8,5.1,2.5c2.8,4.4,4.6,9.4,5.2,14.6C375.4,238.7,374.5,239.2,373.6,239.7z"/>
	<path d="M376.6,246.1c-0.1,0.9-0.2,1.8-0.3,2.7c-0.8,5.4-2.4,10.7-4.7,15.7c-0.6,1.4-1.3,2.8-2,4.2c-16.1,31-56.9,61.4-92.9,66
		c-2.1-8.5-2.6-17.2-1.4-25.9c4.6-33.6,33-58.8,68.3-63.8c8.6-1.2,17.3-1.3,25.8-0.1C371.8,245.4,374.2,245.7,376.6,246.1z"/>
	<path d="M392.8,236.9c-0.6-0.1-1.2-0.2-1.8-0.4c-2-0.5-4-0.7-6.1-0.5c-0.7,0-1.5,0.1-2.2,0.3c-3.2,0.6-6.3,1.7-9.2,3.4l-7.5-18.6
		c1.6,1,3.3,1.8,5.1,2.5c2.5,1,5.2,1.8,6.6,0.8c0.4-0.3,0.7-0.7,0.9-1.2c0.1-0.5,0.2-1,0.1-1.5c0-0.6,0-1.1,0-1.6
		c0.1-5.6,3.4-4.3,3.4-4.3c8.4-2.1,16.2,14.4,16.2,14.4S399.4,237.7,392.8,236.9z"/>
	<path d="M384.9,236c-0.7,0-1.5,0.1-2.2,0.3c-1.2-3.3-3.5-8.5-4.9-11.9c0.4-0.3,0.7-0.7,0.9-1.2L384.9,236z"/>
	<path d="M392.8,236.9c-0.3-2.9-1.1-5.8-2.4-8.4c-2-3.5-7.6-7.9-11.6-8.4c0.1-5.6,3.4-4.3,3.4-4.3c8.4-2.1,16.2,14.4,16.2,14.4
		S399.4,237.7,392.8,236.9z"/>
	<path class="st7" d="M392.8,236.9c-0.3-2.9-1.1-5.8-2.4-8.4c-2-3.5-7.6-7.9-11.6-8.4c0.1-5.6,3.4-4.3,3.4-4.3
		c8.4-2.1,16.2,14.4,16.2,14.4S399.4,237.7,392.8,236.9z"/>
	<path class="st7" d="M222.3,306.9c-16.1-1.4-20.6-23.5-20.6-23.5c8.9,9.7,17.8,10.4,17.8,10.4c0.6,1.7,0.9,3.5,0.7,5.3
		C220.1,302.7,222.3,306.9,222.3,306.9z"/>
</g>
<path class="st12" d="M376.3,244.1c-0.1,0.6-0.2,1.2-0.3,1.9c-0.9,4.8-2.4,9.5-4.5,13.9c-0.2,0.4-0.4,0.9-0.6,1.3
	c-0.4,1-0.9,2-1.5,2.9c-16.3,31.3-57.6,61.9-93.8,66.2c-5.4,0.7-11,0.7-16.4,0c-46.3-6.3-79.3-45.1-73.7-86.7
	c4.6-33.6,33-58.8,68.3-63.8c1.1-0.2,2.2-0.3,3.3-0.4c7.5-0.8,15.1-0.7,22.5,0.3c15.5,2.1,32,5.4,47,10.3c3.2,1.1,6.2,2.2,9.2,3.4
	c0.8,0.3,1.6,0.7,2.4,1c1.5,0.6,2.9,1.3,4.3,1.9c1.1,0.5,2.2,1,3.3,1.6c10.9,5.5,19.8,12.5,25.2,21.1c2.8,4.4,4.6,9.4,5.2,14.6
	C376.8,237.1,376.8,240.7,376.3,244.1z"/>
<path class="st5" d="M392.8,232.2c-0.6-0.1-1.2-0.2-1.8-0.4c-2-0.5-4-0.7-6.1-0.5c-0.7,0.1-1.5,0.1-2.2,0.3c-2.2,0.4-4.3,1-6.3,1.9
	c-1,0.4-1.9,0.9-2.9,1.5l-7.5-18.6c1.6,1,3.3,1.8,5.1,2.5c2.5,1,5.2,1.8,6.6,0.8c0.4-0.3,0.7-0.7,0.9-1.2c0.1-0.5,0.2-1,0.1-1.5
	c0-0.6,0-1.1,0-1.6c0.1-5.6,3.4-4.3,3.4-4.3c8.4-2.1,16.2,14.4,16.2,14.4S399.4,233,392.8,232.2z"/>
<path class="st6" d="M384.9,231.4c-0.7,0.1-1.5,0.1-2.2,0.3c-1.2-3.4-3.5-8.5-4.9-11.9c0.4-0.3,0.7-0.7,0.9-1.2L384.9,231.4z"/>
<path class="st5" d="M392.8,232.2c-0.3-2.9-1.1-5.8-2.4-8.4c-2-3.5-7.6-7.9-11.6-8.4c0.1-5.6,3.4-4.3,3.4-4.3
	c8.4-2.1,16.2,14.4,16.2,14.4S399.4,233,392.8,232.2z"/>
<path class="st7" d="M392.8,232.2c-0.3-2.9-1.1-5.8-2.4-8.4c-2-3.5-7.6-7.9-11.6-8.4c0.1-5.6,3.4-4.3,3.4-4.3
	c8.4-2.1,16.2,14.4,16.2,14.4S399.4,233,392.8,232.2z"/>
<path class="st8" d="M201.8,278.7c0,0,4.4,22.1,20.6,23.5c0,0-2.2-4.2-2-7.8c0.2-1.8,0-3.6-0.7-5.3
	C219.6,289.2,210.7,288.5,201.8,278.7z"/>
<g class="st11">
	<path d="M231.2,89.9c-1,1.5-2.4,2.7-4,3.6c-3.1,1.9-5.3,6.1-5.3,6.1c-8-14.1,7.9-30.3,7.9-30.3C226.8,82.1,231.2,89.9,231.2,89.9z"
		/>
	<path d="M338.4,194.3c2.6,1.1,5.1,2.3,7.5,3.5c-3.1,0.8-6.2,1.4-9.3,1.7c-25.2,3-57.5-4.9-82.6-19.8c8.6-1.2,17.3-1.3,25.8-0.1
		c15.5,2.1,32,5.4,47,10.3C330.8,191.3,334.6,192.7,338.4,194.3z"/>
	<path d="M374.7,175.4c-2.1,4.8-5.2,9.1-9.1,12.6c-0.9-0.6-1.8-1.1-2.8-1.5l11.2-16.7C374.1,171.6,374.3,173.5,374.7,175.4z"/>
	<path d="M384.5,201.5c0,0-5.4,5.1-8.5-0.8c-0.3-0.5-0.5-1.1-0.7-1.7c-0.7-1.9-1.7-3.7-3-5.3c-0.5-0.6-1-1.1-1.5-1.7
		c-1.5-1.6-3.3-3-5.2-4.1c-0.9-0.6-1.8-1.1-2.8-1.5l11.2-16.7c0.1,1.9,0.4,3.8,0.8,5.7c0.5,2.6,1.5,5.3,3.1,6c0.5,0.2,1,0.2,1.5,0
		c0.5-0.2,0.9-0.4,1.3-0.7c0.5-0.4,0.9-0.7,1.3-0.9c4.7-3,5.4,0.4,5.4,0.4C393.7,185.8,384.5,201.5,384.5,201.5z"/>
	<path d="M379.2,181.3l-7,12.4c-0.5-0.6-1-1.1-1.5-1.7c2-2.9,5.1-7.7,7-10.7C378.2,181.5,378.7,181.5,379.2,181.3z"/>
	<path d="M384.5,201.5c0,0-5.4,5.1-8.5-0.8c2.3-1.9,4.2-4.1,5.6-6.7c1.8-3.6,2.3-10.7,0.3-14.3c4.7-3,5.4,0.4,5.4,0.4
		C393.7,185.8,384.5,201.5,384.5,201.5z"/>
	<path class="st7" d="M384.5,201.5c0,0-5.4,5.1-8.5-0.8c2.3-1.9,4.2-4.1,5.6-6.7c1.8-3.6,2.3-10.7,0.3-14.3c4.7-3,5.4,0.4,5.4,0.4
		C393.7,185.8,384.5,201.5,384.5,201.5z"/>
	<path class="st7" d="M231.2,89.9c-1,1.5-2.4,2.7-4,3.6c-3.1,1.9-5.3,6.1-5.3,6.1c-8-14.1,7.9-30.3,7.9-30.3
		C226.8,82.1,231.2,89.9,231.2,89.9z"/>
</g>
<path class="st5" d="M374.7,173c-2.1,4.8-5.2,9.1-9.1,12.6c-2.6,2.3-5.6,4.3-8.8,5.9c-4.5,2.2-9.2,3.8-14.1,4.7c-2,0.4-4,0.7-6.1,1
	c-0.1,0-0.3,0-0.4,0.1c-24.1,2.8-54.5-4.4-78.9-18c-16.6-9.3-30.4-21.5-37.5-35.8c-20.9-41.8-7.5-90.9,30-109.7s84.9-0.2,105.8,41.7
	c7,14,13.7,29.5,18,44.6c0.4,1.4,0.8,2.7,1.1,4.1C379.4,142.3,380.6,159.7,374.7,173z"/>
<path class="st13" d="M374.7,173c-2.1,4.8-5.2,9.1-9.1,12.6c-2.6,2.3-5.6,4.3-8.8,5.9c-4.5,2.2-9.2,3.8-14.1,4.7c-2,0.4-4,0.7-6.1,1
	c-0.1,0-0.3,0-0.4,0.1c-24.1,2.8-54.5-4.4-78.9-18c-16.6-9.3-30.4-21.5-37.5-35.8c-20.9-41.8-7.5-90.9,30-109.7s84.9-0.2,105.8,41.7
	c7,14,13.7,29.5,18,44.6c0.4,1.4,0.8,2.7,1.1,4.1C379.4,142.3,380.6,159.7,374.7,173z"/>
<path class="st5" d="M384.5,199.2c0,0-5.4,5.1-8.5-0.8c-0.3-0.5-0.5-1.1-0.7-1.7c-0.7-1.9-1.7-3.7-3-5.3c-0.5-0.6-1-1.1-1.5-1.6
	c-1.5-1.6-3.3-3-5.2-4.1c-0.9-0.6-1.8-1.1-2.8-1.5l11.2-16.7c0.1,1.9,0.4,3.8,0.8,5.7c0.5,2.6,1.5,5.3,3.1,6c0.5,0.2,1,0.2,1.5,0
	c0.5-0.2,0.9-0.4,1.3-0.7c0.5-0.4,0.9-0.7,1.3-0.9c4.7-3,5.4,0.4,5.4,0.4C393.7,183.5,384.5,199.2,384.5,199.2z"/>
<path class="st6" d="M379.2,179l-7,12.4c-0.5-0.6-1-1.1-1.5-1.6c2-2.9,5.1-7.7,7-10.8C378.2,179.2,378.7,179.2,379.2,179z"/>
<path class="st5" d="M384.5,199.2c0,0-5.4,5.1-8.5-0.8c2.3-1.8,4.2-4.1,5.6-6.7c1.8-3.6,2.3-10.7,0.3-14.4c4.7-3,5.4,0.4,5.4,0.4
	C393.7,183.5,384.5,199.2,384.5,199.2z"/>
<path class="st7" d="M384.5,199.2c0,0-5.4,5.1-8.5-0.8c2.3-1.8,4.2-4.1,5.6-6.7c1.8-3.6,2.3-10.7,0.3-14.4c4.7-3,5.4,0.4,5.4,0.4
	C393.7,183.5,384.5,199.2,384.5,199.2z"/>
<path class="st8" d="M229.8,66.9c0,0-15.8,16.2-7.8,30.3c0,0,2.2-4.2,5.3-6.1c1.6-0.9,3-2.1,4-3.6C231.2,87.6,226.8,79.8,229.8,66.9
	z"/>
<path class="st14" d="M673.1,201.8c-5.2,41.7-47.1,70.7-93.5,64.9c-22.5-2.8-47.3-8.1-66.3-17.5c-11-5.5-20-12.3-25.5-20.9
	c-2.9-4.4-4.7-9.4-5.4-14.6c-0.5-3.5-0.5-7.1,0-10.6c1.3-10.1,6-20.7,13.1-31c22.3-32.2,67.8-60.7,103-56.3
	C645,121.7,678.3,160.1,673.1,201.8z"/>
<path class="st5" d="M493,230.8c-1.6-1-3.4-1.8-5.1-2.5c-2.5-1-5.2-1.7-6.6-0.8c-0.4,0.3-0.8,0.7-0.9,1.3c-0.1,0.5-0.2,0.9-0.1,1.4
	c0,0.6,0.1,1.1,0.1,1.6c-0.1,5.6-3.3,4.3-3.3,4.3c-8.4,2.1-16.3-14.3-16.3-14.3s-1.2-7.4,5.5-6.6c0.6,0.1,1.2,0.2,1.8,0.3
	c2,0.5,4.1,0.7,6.1,0.5c0.7-0.1,1.5-0.2,2.2-0.3c2.2-0.4,4.3-1.1,6.3-2c1-0.4,1.9-0.9,2.9-1.5L493,230.8z"/>
<path class="st6" d="M481.3,227.5c-0.4,0.3-0.8,0.7-0.9,1.3l-6.4-12.8c0.7-0.1,1.5-0.2,2.2-0.3C477.5,219,479.8,224.2,481.3,227.5z"
	/>
<path class="st5" d="M480.4,231.8c-0.1,5.6-3.3,4.3-3.3,4.3c-8.4,2.1-16.3-14.3-16.3-14.3s-1.2-7.4,5.5-6.6c0.3,2.9,1.1,5.7,2.5,8.3
	C470.7,227,476.3,231.4,480.4,231.8z"/>
<path class="st7" d="M480.4,231.8c-0.1,5.6-3.3,4.3-3.3,4.3c-8.4,2.1-16.3-14.3-16.3-14.3s-1.2-7.4,5.5-6.6c0.3,2.9,1.1,5.7,2.5,8.3
	C470.7,227,476.3,231.4,480.4,231.8z"/>
<path class="st8" d="M656.7,166.8c0,0-4.6-22.1-20.8-23.3c0,0,2.3,4.2,2.1,7.8c-0.2,1.8,0.1,3.6,0.7,5.3
	C638.7,156.5,647.7,157.2,656.7,166.8z"/>
<path class="st7" d="M513.4,249.2c-11-5.5-20-12.3-25.5-20.9c-2.5-1-5.2-1.7-6.6-0.8c-0.4,0.3-0.8,0.7-0.9,1.3
	c-0.1,0.5-0.2,0.9-0.1,1.4c0,0.6,0.1,1.1,0.1,1.6c-0.1,5.6-3.3,4.3-3.3,4.3c-8.4,2.1-16.3-14.3-16.3-14.3s-1.2-7.4,5.5-6.6
	c0.6,0.1,1.2,0.2,1.8,0.3c2,0.5,4.1,0.7,6.1,0.5c0.7-0.1,1.5-0.2,2.2-0.3c2.2-0.4,4.3-1.1,6.3-2c-0.5-3.5-0.5-7.1,0-10.6
	c1.3-10.1,6-20.7,13.1-31C507.5,197.8,517,226.9,513.4,249.2z"/>
<path class="st7" d="M481.9,281.8c-2.1,1-4.3,1.8-6.5,2.5c-2,0.6-4.1,1.2-6.2,1.6l-1.4,0.3c-1.8,0.3-3.7,0.6-5.6,0.8
	c-1.4,0.2-2.9,0.3-4.3,0.4c-27.7,1.8-62.4-8.5-86.9-26.2c-6.8-4.8-12.8-10.5-18.1-16.9c-2.7-3.4-5.1-7.1-7.1-11
	c-5.7-11.2-9-23.5-9.7-36c-0.1-1.3-0.1-2.6-0.1-3.9c-0.4-29,13.6-56,38.7-69.2c4.7,18.1,5.8,35.5,0,48.9c0.5,2.6,1.5,5.3,3.1,6
	c0.5,0.2,1,0.2,1.5,0c0.5-0.2,0.9-0.4,1.3-0.7c0.5-0.4,0.9-0.7,1.3-0.9c4.7-3,5.4,0.4,5.4,0.4c6.5,5.8-2.8,21.5-2.8,21.5
	s-5.4,5.1-8.5-0.8c-0.3-0.5-0.5-1.1-0.7-1.7c-0.7-1.9-1.7-3.7-3-5.3c-0.5-0.6-1-1.1-1.5-1.6c-1.5-1.6-3.3-3-5.2-4.1
	c-2.6,2.3-5.6,4.3-8.8,5.9c-4.5,2.2-9.2,3.8-14.1,4.7c1.1,0.5,2.2,1.1,3.3,1.6c10.9,5.5,19.8,12.5,25.2,21.1c2.5,1,5.2,1.8,6.6,0.8
	c0.4-0.3,0.7-0.7,0.9-1.2c0.1-0.5,0.2-1,0.1-1.5c0-0.6,0-1.1,0-1.6c0.1-5.6,3.4-4.3,3.4-4.3c8.4-2.1,16.2,14.4,16.2,14.4
	s1.1,7.4-5.5,6.6c-0.6-0.1-1.2-0.2-1.8-0.4c-2-0.5-4-0.7-6.1-0.5c-0.7,0.1-1.5,0.1-2.2,0.3c-2.2,0.4-4.3,1-6.3,1.9
	c0.4,3.5,0.4,7.1-0.1,10.6c-0.1,0.6-0.2,1.2-0.3,1.9c0.2,0,0.4,0.1,0.6,0.1c13.5,2,26.8,5.1,39.8,9.3c4,1.3,7.9,2.8,11.6,4.4
	c2.6,1.1,5.1,2.3,7.5,3.5c10.9,5.5,19.8,12.5,25.2,21.1c2.5,1,5.2,1.8,6.6,0.8c0.4-0.3,0.7-0.7,0.9-1.2c0.1-0.5,0.2-1,0.1-1.5
	c0-0.6,0-1.1,0-1.6c0.1-5.6,3.4-4.3,3.4-4.3C475.4,275.7,479,278.5,481.9,281.8z"/>
<g class="st11">
	<path d="M364.4,170.3c-1,1.5-2.4,2.7-4,3.5c-3.1,1.9-5.3,6.1-5.3,6.1c-8-14.1,7.9-30.3,7.9-30.3
		C359.9,162.5,364.4,170.3,364.4,170.3z"/>
	<path d="M488.8,158.1c1.5,2.9,2.9,6,4.4,9c-9.5,11.6-20.2,20.4-31.9,23.7c-1.7,2.1-3.1,4.5-2.6,6.1c0.2,0.5,0.5,0.9,1,1.2
		c0.4,0.3,0.9,0.4,1.3,0.5c0.5,0.1,1,0.2,1.5,0.4c5.3,1.6,3.2,4.4,3.2,4.4c-0.3,8.6-18.3,11.6-18.3,11.6s-7.4-0.9-4.8-7.1
		c0.2-0.5,0.5-1.1,0.8-1.6c1.1-1.8,1.8-3.7,2.2-5.8c0.1-0.7,0.3-1.5,0.3-2.2c0.2-2.2,0.2-4.4-0.1-6.6c-3.5-0.5-6.9-1.5-10.1-3
		c-22.7-9.9-42.8-40.6-51.6-73C421.4,98.1,468,116.8,488.8,158.1z"/>
	<path d="M507.8,255.7c-2.1,4.8-5.2,9.1-9.1,12.6c-0.9-0.6-1.8-1.1-2.8-1.5l11.2-16.7C507.2,252,507.4,253.9,507.8,255.7z"/>
	<path d="M517.6,281.9c0,0-5.4,5.1-8.5-0.8c-0.3-0.5-0.5-1.1-0.7-1.7c-0.7-1.9-1.7-3.7-3-5.3c-0.5-0.6-0.9-1.1-1.5-1.7
		c-1.6-1.6-3.3-3-5.2-4.1c-0.9-0.6-1.8-1.1-2.8-1.5l11.2-16.7c0.1,1.9,0.4,3.8,0.7,5.6c0.6,2.6,1.5,5.3,3.1,6c0.5,0.2,1,0.2,1.5,0
		c0.5-0.2,0.9-0.4,1.3-0.7c0.4-0.3,0.8-0.6,1.3-0.9c4.7-3.1,5.4,0.4,5.4,0.4C526.8,266.2,517.6,281.9,517.6,281.9z"/>
	<path d="M512.4,261.7l-7.1,12.4c-0.5-0.6-0.9-1.1-1.5-1.6c2-2.9,5.1-7.7,7-10.8C511.4,261.9,511.9,261.9,512.4,261.7z"/>
	<path d="M517.6,281.9c0,0-5.4,5.1-8.5-0.8c2.3-1.8,4.2-4.1,5.5-6.6c1.8-3.6,2.3-10.7,0.3-14.4c4.7-3,5.4,0.4,5.4,0.4
		C526.8,266.2,517.6,281.9,517.6,281.9z"/>
	<path class="st7" d="M517.6,281.9c0,0-5.4,5.1-8.5-0.8c2.3-1.8,4.2-4.1,5.5-6.6c1.8-3.6,2.3-10.7,0.3-14.4c4.7-3,5.4,0.4,5.4,0.4
		C526.8,266.2,517.6,281.9,517.6,281.9z"/>
	<path class="st7" d="M364.4,170.3c-1,1.5-2.4,2.7-4,3.5c-3.1,1.9-5.3,6.1-5.3,6.1c-8-14.1,7.9-30.3,7.9-30.3
		C359.9,162.5,364.4,170.3,364.4,170.3z"/>
</g>
<path class="st15" d="M486.4,162.8c21,41.8,38.7,97.3,1.2,116.1s-116.1-6.2-137.1-48s-7.5-90.9,30-109.7S465.5,121,486.4,162.8z"/>
<path class="st5" d="M515.3,286.6c0,0-5.4,5.1-8.5-0.8c-0.3-0.5-0.5-1.1-0.7-1.6c-0.7-1.9-1.7-3.7-3-5.3c-0.5-0.6-0.9-1.1-1.5-1.6
	c-2.3-2.3-5-4.2-8-5.7l11.2-16.7c0,0,0.5,10.2,3.8,11.6c0.5,0.2,1,0.2,1.5,0c0.5-0.2,0.9-0.4,1.3-0.7c0.5-0.4,0.9-0.7,1.3-0.9
	c4.7-3,5.4,0.3,5.4,0.3C524.5,270.9,515.3,286.6,515.3,286.6z"/>
<path class="st6" d="M510.1,266.4l-7.1,12.4c-0.5-0.6-0.9-1.1-1.5-1.6c2-2.9,5.1-7.7,7-10.8C509,266.6,509.6,266.6,510.1,266.4z"/>
<path class="st5" d="M515.3,286.6c0,0-5.4,5.1-8.5-0.8c2.3-1.8,4.2-4.1,5.6-6.7c1.8-3.6,2.3-10.7,0.3-14.3c4.7-3,5.4,0.3,5.4,0.3
	C524.5,270.9,515.3,286.6,515.3,286.6z"/>
<path class="st7" d="M515.3,286.6c0,0-5.4,5.1-8.5-0.8c2.3-1.8,4.2-4.1,5.6-6.7c1.8-3.6,2.3-10.7,0.3-14.3c4.7-3,5.4,0.3,5.4,0.3
	C524.5,270.9,515.3,286.6,515.3,286.6z"/>
<path class="st8" d="M360.6,154.3c0,0-15.8,16.1-7.8,30.3c0,0,2.2-4.2,5.3-6.1c1.6-0.9,3-2.1,4-3.6
	C362,174.9,357.6,167.2,360.6,154.3z"/>
<path class="st4" d="M505.7,274.3c-6.4,4.5-6.8,15.4-0.8,20.4c7.5,6.2,18.6,2.3,28.3,3.4s18.1,7.4,24.3,14.9
	c11.6,14.6,16.3,33.5,12.6,51.8c-1.9,9.2-5.8,17.9-7.6,27.1c-2.1,11.1-1.1,22.5,0.3,33.7c1,8.3,2.2,16.9,6.3,24.2
	c6.5,11.7,19.1,18.5,31.7,23s25.9,7.2,37.6,13.6c16.1,8.9,27.9,24.1,32.6,41.9c0.5,1.4,0.5,2.8,0.1,4.2c-0.5,1.3-2.3,2.2-3.5,1.4"/>
<path class="st4" d="M472.1,293.9c-0.6,2.9,1.5,5.9,4.2,6.9c2.8,0.9,5.9,0.4,8.4-1.3c3-1.9,5.7-5.1,9.3-5c2.6,0.1,4.8,2,6.4,4
	s2.9,4.4,4.9,6c1.8,1.3,3.8,2.2,5.9,2.7c2.5,0.7,5.2,0.9,7.8,0.4c5.5-1.2,9.6-6.1,15-7.7c7.2-2.1,14.6,2.2,20.3,6.9
	c6.9,5.7,13.1,12.7,16,21.2c1.9,5.6,2.3,11.6,3,17.5s2.1,11.9,5.5,16.7s9.5,8.2,15.3,6.9"/>
<linearGradient id="SVGID_1_" gradientUnits="userSpaceOnUse" x1="802.3434" y1="-4.6313" x2="802.3434" y2="581.4144" gradientTransform="matrix(1 0 0 -1 -94.43 816.46)">
	<stop  offset="0" style="stop-color:#808080;stop-opacity:0.25"/>
	<stop  offset="0.54" style="stop-color:#808080;stop-opacity:0.12"/>
	<stop  offset="1" style="stop-color:#808080;stop-opacity:0.1"/>
</linearGradient>
<path class="st16" d="M921.3,303c0,0-31.7-17.8-34.3-19.6s0-4.3,0-4.3c-5.1-3.3-15.6,3.4-15.6,3.4s3.8,1,7.5,2.1
	c-13.1-3.4-35.1-9.9-46.3-17.1c-8.7-5.6-16.3-4-21.6-1.2l-0.1-0.3c-1.3-4.2-1.1-8.7-2.7-12.8c-2-5-6.8-8.5-12.1-9.6
	c-3-0.6-3.5-0.3-5.3-2.6c-2.1-2.7-3.8-3.7-7.3-4.5c-4-0.9-8-1.7-12.1-1.4s-8.2,1.9-10.7,5c-1.4,1.8-2.1,4-3.4,5.8
	c-6.4,8.7-21.7,4.7-29.8,11.9c-5,4.4-5.8,11.7-6.9,18.2s-3.8,13.8-10.2,16c-3,1-6.4,0.6-9.6,0.9s-6.8,1.3-8.2,4.2
	c-0.5,1.1-0.7,2.4-0.7,3.6c0,0.1,0,0.2,0,0.2v0.1c0.1,1.9,0.4,3.7,0.8,5.5c0-0.1,0-0.1,0-0.2c0.4,2.4,0.4,4.7-1.4,6.3
	c-3.6,3.4-11.3,0.3-13.5,4.6c-0.3,0.6-0.4,1.3-0.4,2c0,1.9,0.8,3.7,2.2,4.9c1.7,1.7,3.8,3,5.2,4.9c0.6,0.8,1,1.7,1.2,2.7
	c0-0.1,0-0.2,0.1-0.3c0.4,1.5,0.3,3.1-0.2,4.6c-11.7-0.5-29-1.5-32.5-3.9c-5.4-3.6-30.7-9.7-30.7-9.7l-0.3-0.2l0,0l-0.8-0.5
	l-0.8-0.4l-0.2-0.1c-0.3-0.2-0.6-0.3-1-0.5h-0.1l-1-0.5l-0.2-0.1l-1.2-0.5l-0.2-0.1c-0.4-0.1-0.8-0.3-1.1-0.4l-0.1,0
	c-0.4-0.1-0.8-0.3-1.2-0.4l-0.2-0.1c-0.8-0.2-1.6-0.4-2.5-0.5h-0.1h-0.5h-0.3h-0.4l-0.3,0c-0.1,0-0.2,0-0.3,0.1
	c-0.2,0.1-0.4,0.1-0.6,0.2c-0.4,0.3-0.7,0.6-0.9,1.1l-1.8-0.7l-31.3-12.1c0,0-3.8-2-5.5-3.3c-5.4-2.9-11.1-5.1-17.1-6.4l-0.2-0.1
	v0.1c-6.9-1.2-12.8,0-10.7,8.7c4.3,18.3,28.2,16.1,28.2,16.1l33.8,14.4l2.2,1c-0.2,10.1,0.8,20.8,3.3,22.2c0.4,0.2,0.8,0.4,1.3,0.6
	l0.3,0.1c0.4,0.2,0.8,0.3,1.2,0.5h0.1c0.4,0.1,0.8,0.3,1.2,0.4h0.2c0.4,0.1,0.8,0.2,1.2,0.3l0,0c1.3,0.2,2.6,0.3,3.8,0.3l0,0h0.3
	h0.1l-0.2-12.1c0.4,0.1,0.8,0.3,1.1,0.5l0,0c1.2,0.7,2.4,1.5,3.5,2.4c3,2.4,22.9,4.7,22.9,4.7s19,7,20.1,8.5s55.5,3.1,55.5,3.1
	s-7.4,16.6,13.2,33.3c0,0,3.5,21.7,1.3,27.7c-1.4,3.8-1.7,10.6-1.7,15.2c-6.8,2.4-23,8.5-27.1,13.6c-5.3,6.5-9.5,6.5-9.5,6.5
	s-5.3,10-11.7,12.5s-27.1,13.6-29,16.6s-19.3,13-19.3,13s-17.9,14.1-21.2,19.3s-26.8,14.9-26.8,14.9s-6.4,9-4.5,18.5
	s-15.8,4.3-0.4,20.3c3.6,3.8,10.2,7.8,18.4,12.1c-0.6,0.3-1.2,0.7-1.7,0.9c-0.9,0.5-1.9,0.8-2.8,1.1c-9.2,2.4-35.5,44.5-35.5,44.5
	s-16.1,20.2-28.5,27.5c-0.4,0.3-0.8,0.5-1.3,0.7l0,0c-1-2.4-4.8-4.7-8.8-6.5c-4.4-2-9.2-3.3-14-3.8c-3.2-0.4-7.2-1.3-9.8-3.5
	c-2.3-2-5-3.5-7.8-4.5c-3.9-1.2-7.1-0.2-5.5,7.1c1.5,7.3,4.3,14.3,8.4,20.5c0,0,17.2,15.1,18.8,20.4s8.8,11.3,9.9,10.6
	c0.4-0.2,2.2-1.4,4.6-3c4.8-3.2,11.7-8.3,12.1-11.2c0-0.1-0.8,0.1-2,0.2c0.2-0.3,0.3-0.7,0.6-1.1c2.3-4,7.9-13.1,14.6-16.2
	l26.5-25.4c0,0,28.2-14.7,33-25.5c2-4.5,9-11.1,16.6-17.3l1.7-1.3c22.5,11.1,46.3,24,56.9,39.3c15.3,22,49.9,30.1,66.2,32.8
	c0.1,1.3,0.2,2.5,0.2,3.6c0.3,4.7,0,9.4-0.8,14.1c-0.8,4.9-0.6,42.9-0.6,42.9s1.7,19.5-3.3,25.8c-2.6,3.2-4.6,10.9-5.9,17.5
	c-0.1,0.4-0.2,0.8-0.2,1.2c-2.3,1.1-4.2,3.4-5.2,7.5c0,0-4.3,2.8-3.3,13.9c0.3,2.7,0.3,5,0.5,7c0.4,6.3,1.1,9.3,7.9,9.2
	c9-0.1,27.8-9.3,27.8-9.3c0.1-1.9,0-3.8-0.2-5.7c-0.4-3.6-1.6-7.1-3.6-10.2l0.1-0.2l0.2-0.5c0.2-0.4,0.3-0.9,0.5-1.4l0.1-0.1l0,0
	c0.4-1.1,0.6-2.3,0.6-3.5v-12.7c0,0,0.6-18.5,5-28.2c3.6-7.9,13.2-44.6,13.8-63.3c0.1-1.8,0-3.5-0.1-5.3c1.1-0.3,1.9-1.4,1.9-2.5
	c-0.3-7.1-5.9-3.8-3.1-17.6s4.8-30.9,9.8-39.1c3.5-6,6.6-12.3,9.2-18.7c0,0,10.6-35.8,15.1-44.5s21.5-65.1-5.6-91.4l-1.5-5.7
	c0,0,0-0.1,0.1-0.2l0,0c0.2-0.4,0.6-1.3,1.2-2.7l0,0c0.5-1.1,1-2.5,1.6-4l0,0c0.3-0.9,0.6-1.8,0.9-2.7l0,0c0.5-1.4,0.8-2.7,1.2-4
	l0,0l0.2-0.7c8.7,2,13.9-4.2,16-7.4c1.2-0.7,1.7-1.3,1.1-1.9c-3.3-3.3-0.4-10.3-0.4-10.3l0.2-30.8c0,0,3.9-0.7,4.8-11.6
	c0.5-6.5,3.3-12.6,7.8-17.2c8.4-9.2,31.6-19.2,31.6-19.2C898,343,922.9,319,922.9,319C936.3,308,921.3,303,921.3,303z M884.6,315.4
	c-5.2,1.1-16.9,6.9-16.9,6.9s-7.1,1.8-13.4,4.2s-14.5-1.2-14.5-1.2c-4.3-5.8-18.8,2.5-22.2,4.5c-2.5,1.5-4.7,1-7.1-1.1
	c-0.9-0.8-1.7-1.6-2.4-2.5c-0.7-0.8-1.5-1.5-2.5-2.1c1.1-1.9,2.5-3.7,4.1-5.2c3.5-3.4,7.7-6.2,11.3-9.6s6.6-7.7,6.9-12.6
	c0-0.2,0-0.4,0-0.6c0.1-3-0.7-6-2.2-8.7c2.9,0.6,5.9,1.1,8.9,1.4c8.5,0.5,19,4.8,25.3,7.7l1.3,0.6l-0.7,0.2l0.3,0.3l-0.3,0.1
	l0.1,0.1l0,0l0.5,0.6l0.1,0.1c0.2,0.3,0.5,0.7,0.9,1.1l0.1,0.1c0.4,0.5,0.8,0.9,1.3,1.5l0.1,0.1c0.5,0.5,1,1.1,1.5,1.6l0.1,0.1
	c0.5,0.5,1,1,1.5,1.5l0,0c0.7,0.6,1.4,1.2,2.2,1.8l0.1,0c0.6,0.4,1.2,0.8,1.8,1.2l0.2,0.1c0.3,0.1,0.6,0.3,0.9,0.4
	c5,2,7.6-2.7,7.6-2.7c0.7,0.2,1.4,0.5,2.1,0.8C886.5,308.8,889.2,314.5,884.6,315.4z"/>
<path class="st17" d="M883.2,288v5.6l-23.4,6.5c0,0-2.1-1.2-5.5-2.8c-6.1-3-16.3-7.2-24.6-7.8c-12.8-0.8-54.8-13.5-42.2-16.3
	s11.7,0,11.7,0s12.3-15.7,28.5-4.9c12.3,8.2,38,15.3,49.6,18.3C880.9,287.5,883.2,288,883.2,288z"/>
<path class="st18" d="M779.7,237.2c-3.9-0.9-7.8-1.7-11.8-1.4s-8,1.9-10.4,5.1c-1.3,1.8-2,4-3.3,5.8c-6.2,8.7-21.1,4.8-29,11.9
	c-4.9,4.4-5.7,11.7-6.7,18.2s-3.7,13.9-9.9,16c-3,1-6.2,0.6-9.3,0.9s-6.6,1.4-8,4.2c-2.4,4.9,2.7,11.9-1.2,15.7
	c-3.5,3.4-11,0.3-13.2,4.6c-1.1,2.1,0.1,4.7,1.8,6.4s3.8,3,5.1,4.9c2.7,3.8,1.7,9-2.1,11.7c-1.3,0.9-2.9,1.5-4.5,1.5
	c-2.8,0.1-5.9-1.1-8.1,0.6c-1.3,1.2-2,3-1.8,4.8c0.4,6.3,5.8,11.2,12.1,11c4.7-0.3,8.6-3.4,12.5-6s8.5-5.1,13-3.9
	c2.1,0.7,4.1,1.7,5.8,3.1c5.4,3.5,11.4,6,17.7,7.6c5.5,1.4,11.8,1.8,16.5-1.4c5.3-3.6,7.3-11.1,13-14c6-3,13.1,0.2,19.3,2.9
	s14.3,4.5,18.9-0.4c5-5.3,2.1-14.1,4.7-20.9c1.1-2.5,2.7-4.8,4.7-6.7c3.4-3.5,7.5-6.2,11-9.7s6.4-7.8,6.7-12.6
	c0.4-5.9-3.1-11.2-6.8-15.8s-8-8.9-9.8-14.5c-1.3-4.2-1.1-8.8-2.7-12.8c-2.1-5-6.5-8.6-11.8-9.6c-3-0.6-3.4-0.3-5.2-2.6
	C785.2,239.3,782.6,237.6,779.7,237.2z"/>
<g class="st11">
	<path d="M690.7,299.7c-0.5,2.4,0.2,5.1,0.5,7.7C691.9,305.1,691.1,302.4,690.7,299.7z"/>
	<path d="M683.7,329.9c0.6,0.8,1,1.7,1.2,2.7c0.6-2.4,0.2-4.9-1.2-7c-1.4-1.9-3.5-3.2-5.1-4.9c-0.7-0.7-1.2-1.5-1.6-2.3
		c-0.1,0.1-0.1,0.2-0.2,0.3c-1.1,2.1,0.1,4.7,1.8,6.4S682.3,328,683.7,329.9z"/>
	<path d="M816.4,305.8c-3.5,3.4-7.5,6.2-11,9.7c-2,1.9-3.6,4.2-4.7,6.7c-2.6,6.8,0.3,15.6-4.7,20.9c-4.7,4.9-12.7,3.1-18.9,0.4
		s-13.3-5.9-19.3-2.9c-5.7,2.9-7.7,10.4-13,14c-4.7,3.2-11,2.8-16.5,1.4c-6.3-1.6-12.3-4.1-17.7-7.6c-1.8-1.3-3.7-2.4-5.8-3.1
		c-4.5-1.2-9.2,1.3-13,3.9s-7.8,5.7-12.5,6c-5.4,0.4-10.6-3.8-11.8-9c-0.2,0.8-0.3,1.5-0.3,2.3c0.4,6.3,5.8,11.2,12.1,11
		c4.7-0.3,8.6-3.4,12.5-6s8.5-5.1,13-3.9c2.1,0.7,4.1,1.7,5.8,3.1c5.4,3.5,11.4,6.1,17.7,7.6c5.5,1.4,11.8,1.8,16.5-1.4
		c5.3-3.6,7.3-11.1,13-14c6-3.1,13.1,0.2,19.3,2.8s14.3,4.5,18.9-0.4c5-5.2,2.1-14.1,4.7-20.9c1.1-2.5,2.7-4.8,4.7-6.7
		c3.4-3.5,7.5-6.2,11-9.6s6.4-7.8,6.7-12.6c0.1-1,0-2.1-0.2-3.1C822.3,298.8,819.6,302.6,816.4,305.8z"/>
</g>
<path class="st19" d="M823.3,438.1l8.9,0.7c0,0-6.7,15.1-21,7.7S823.3,438.1,823.3,438.1z"/>
<path class="st7" d="M823.3,438.1l8.9,0.7c0,0-6.7,15.1-21,7.7S823.3,438.1,823.3,438.1z"/>
<path class="st17" d="M652.6,593.1c0,0-11.2,7.8-21.4,16.4c-7.3,6.2-14.2,12.8-16.1,17.3c-4.7,10.9-32.2,25.6-32.2,25.6L557,678.1
	c-6.5,3.1-12,12.2-14.2,16.2c-0.7,1.2-1,2-1,2h-11.7l-7.1-7.1c0,0-3.8-17.1,8.2-18.5c2.3-0.4,4.6-1.3,6.5-2.6
	c12.1-7.4,27.8-27.6,27.8-27.6s25.6-42.2,34.6-44.6c1-0.3,1.9-0.6,2.8-1.1c8.9-4.5,20.6-18.2,20.6-18.2L652.6,593.1z"/>
<path class="st17" d="M785.5,688c-0.6,18.7-10,55.6-13.5,63.5c-4.4,9.8-4.9,28.3-4.9,28.3v12.8c-0.1,1.8-0.5,3.5-1.2,5.1
	c-0.4,0.9-0.8,1.9-1.3,2.8l-24-4.1c0,0,0.6-5.5,1.9-11.8c1.3-6.7,3.3-14.4,5.8-17.6c4.9-6.3,3.2-25.9,3.2-25.9s-0.2-38.1,0.6-43
	c0.8-4.7,1-9.4,0.7-14.2c-0.1-2.5-0.3-5.4-0.7-8.7c-1.4-11.4,0-28.3,0-28.3l27.5,1.4l4.6,29.9C785.3,680,785.7,683.5,785.5,688z"/>
<path class="st7" d="M542.8,694.2c-0.7,1.2-1,2-1,2h-11.7l-7.1-7.1c0,0-3.8-17.1,8.2-18.5c2.3-0.4,4.6-1.3,6.5-2.6
	c1.7,5-3.6,10.1-3.6,10.1s-2.2,2.1-0.5,10.2C534.6,693.8,539.7,694.4,542.8,694.2z"/>
<path class="st6" d="M544.2,695.1c-0.4,2.9-7.1,8-11.8,11.2c-2.3,1.6-4.1,2.7-4.5,3c-1.1,0.7-8.1-5.3-9.6-10.6s-18.3-20.5-18.3-20.5
	c-3.9-6.3-6.7-13.3-8.2-20.6c-1.5-7.4,1.6-8.4,5.3-7.2c2.8,1,5.4,2.6,7.6,4.5c2.5,2.2,6.5,3.1,9.5,3.5c4.7,0.5,9.3,1.8,13.6,3.8
	c3.8,1.8,7.6,4.1,8.5,6.5c2,5.2-3.5,10.5-3.5,10.5s-2.2,2.1-0.5,10.2S544.3,694.9,544.2,695.1z"/>
<path class="st7" d="M532.4,706.3c-2.3,1.6-4.1,2.7-4.5,3c-1.1,0.7-8.1-5.3-9.6-10.6s-18.3-20.5-18.3-20.5
	c-3.9-6.3-6.7-13.3-8.2-20.6c-1.5-7.4,1.6-8.4,5.3-7.2c1.4,5.8,4.4,17.1,8.2,22.7C509.8,679.7,527.6,700.7,532.4,706.3z"/>
<path class="st7" d="M765.7,797.3l0.3,0.4c-0.4,0.9-0.8,1.9-1.3,2.8l-24-4.1c0,0,0.6-5.5,1.9-11.8c8.8-3.8,23.9,10.5,23.9,10.5
	L765.7,797.3z"/>
<path class="st6" d="M769.4,814.3c0,0-18.3,9.3-27.1,9.3c-6.7,0.1-7.3-2.9-7.7-9.3c-0.1-2-0.2-4.4-0.4-7.1c-1-11.2,3.2-14,3.2-14
	c4.8-20.1,29.2,2.8,29.2,2.8l-0.8,2.3c2,3.1,3.2,6.6,3.5,10.2C769.4,810.4,769.5,812.3,769.4,814.3z"/>
<path class="st7" d="M769.4,814.3c0,0-18.3,9.3-27.1,9.3c-6.7,0.1-7.3-2.9-7.7-9.3c4.8,3.1,10.7,3.9,16.3,2.5
	c6.5-1.7,12.8-4.5,18.4-8.2C769.4,810.5,769.5,812.4,769.4,814.3z"/>
<path class="st17" d="M803.8,335.7l-3.2,33.9l-0.7,7l-13.7,3.6l-14.1,3.7l-16.3-3.6c0,0-6.3-14.3-4.1-25.9c0.6-4.1,2.8-7.8,6-10.5
	c1-0.8,1.9-1.7,2.7-2.7c0.9-1.2,1.6-2.5,2-3.9c0.5-1.7,0.8-3.6,0.7-5.4c-0.4-9-7.2-17.9-7.2-17.9s31.6-15.6,29.9-8
	c-1.1,4.9,4.7,12.5,8.8,17.3c2.3,2.6,4,4.3,4,4.3L803.8,335.7z"/>
<circle class="st7" cx="768.6" cy="298.3" r="28.9"/>
<circle class="st17" cx="768.6" cy="297.2" r="28.9"/>
<path class="st6" d="M816,445.1c-0.5,6.5-5.5,17.3-5.5,17.3l-38.8,15.1l-32.5-26.1c0,0,0-0.1,0-0.2c0.5-2.9,6.8-39.7-2.2-47.4
	c-9.4-8-9.6-33.9-9.6-33.9s12.2-18.4,14.6-22.7s20.6-9.9,20.6-9.9c-0.8,1.4-1.5,2.7-2,3.9c-1.6,3.2-2.7,6.7-3.3,10.3
	c-0.8,5.6,0.7,9,1.8,10.5c0.5,0.8,1,1.6,1.3,2.5c4.9,13.3,18.9,9.5,24.4,7.4c1.4-0.5,2.3-1,2.3-1l13.7-1.3l8.6-0.8
	c0,0,4.9,68,6.5,73.3C816.1,443,816.2,444.1,816,445.1z"/>
<path class="st20" d="M760.5,341.2C760.5,341.2,760.5,341.2,760.5,341.2c-0.6,1.4-1.2,2.7-1.7,4H744c2.5-1.6,5.1-2.9,7.8-4
	L760.5,341.2z"/>
<path class="st21" d="M757.9,347.9c-0.3,1.2-0.6,2.4-0.8,3.6c0,0.1,0,0.3,0,0.4h-18c1-1.6,1.9-3,2.5-4L757.9,347.9z"/>
<path class="st21" d="M757.5,358.7h-22.6c0.9-1.4,1.8-2.7,2.6-4h19.5C756.9,356,757.1,357.4,757.5,358.7z"/>
<path class="st21" d="M760.6,365.5h-30.2c0.8-1.2,1.7-2.6,2.7-4h25.5c0.1,0.2,0.3,0.5,0.4,0.6c0.6,0.8,1,1.6,1.3,2.5
	C760.4,364.9,760.5,365.1,760.6,365.5z"/>
<path class="st21" d="M727.5,369.9v2.2h38.7c-1.7-1-3.1-2.4-4.2-4h-33.3L727.5,369.9z"/>
<path class="st20" d="M809.6,372.1h-25.3l0.4-0.2c1.4-0.5,2.3-1,2.3-1l13.7-1.3l8.6-0.8C809.3,368.8,809.4,370,809.6,372.1z"/>
<path class="st21" d="M810,378.9h-82c-0.2-1.5-0.3-2.8-0.4-4h82C809.8,376,809.9,377.4,810,378.9z"/>
<path class="st21" d="M810.6,385.6H729c-0.3-1.4-0.5-2.7-0.6-4h81.8C810.3,382.8,810.4,384.2,810.6,385.6z"/>
<path class="st21" d="M811,392.3h-80.4c-0.4-1.3-0.7-2.7-1-4h81.2C810.8,389.6,811,390.9,811,392.3z"/>
<path class="st21" d="M811.6,399h-78.2c-0.7-1.3-1.3-2.6-1.8-4h79.7C811.4,396.3,811.5,397.7,811.6,399z"/>
<path class="st21" d="M812.1,405.8h-73.4c-0.4-0.7-1-1.4-1.6-1.9c-0.7-0.6-1.4-1.3-2-2.1h76.7C811.9,403.1,812,404.5,812.1,405.8z"
	/>
<path class="st21" d="M812.7,412.5H741c-0.2-1.4-0.6-2.7-1.1-4h72.4C812.5,409.8,812.6,411.1,812.7,412.5z"/>
<path class="st20" d="M813.3,419.2h-71.5c-0.1-1.4-0.2-2.7-0.3-4h71.5C813,416.5,813.1,417.9,813.3,419.2z"/>
<path class="st20" d="M813.9,425.9h-72c0-1.4,0-2.7,0-4h71.6C813.6,423.3,813.7,424.6,813.9,425.9z"/>
<path class="st20" d="M814.6,432.6h-73c0.1-1.3,0.2-2.7,0.2-4h72.3C814.3,430,814.4,431.4,814.6,432.6z"/>
<path class="st20" d="M815.3,439.4H741c0.1-1.3,0.3-2.6,0.4-4h73.5C815,436.9,815.2,438.3,815.3,439.4z"/>
<path class="st21" d="M816,445.2c0,0.3-0.1,0.6-0.1,0.9h-75.8c0.2-1.2,0.4-2.6,0.5-4h75.2c0,0,0,0,0,0.1
	C816.1,443.1,816.1,444.2,816,445.2z"/>
<path class="st21" d="M815.4,448.8c-0.3,1.3-0.7,2.7-1.1,4H741l-1.8-1.5c0,0,0-0.1,0-0.2c0.1-0.4,0.2-1.2,0.4-2.4L815.4,448.8z"/>
<path class="st21" d="M813.4,455.5c-0.5,1.5-1.1,2.9-1.6,4h-62.4l-5-4H813.4z"/>
<path class="st21" d="M810.7,462.2l-0.1,0.2l-9.8,3.8h-42.9l-5-4L810.7,462.2z"/>
<polygon class="st20" points="793.8,469 783.4,473 766.1,473 761.1,469 "/>
<polygon class="st20" points="776.5,475.7 771.8,477.5 769.5,475.7 "/>
<path class="st7" d="M816,445.1c-6.3,1.5-12.2,2.6-12.2,2.6l-33.2,3.1l-4.6-34.5c0,0,6.3-7.6,12.2-10.5c5.5-2.8,11.5-9.7,8.1-25.6
	c-0.2-0.9-0.4-1.9-0.7-2.8c-0.5-1.8-0.8-3.6-1-5.4c-1.4-12.6,4.6-20.5,6.4-22.4c0.3-0.3,0.4-0.5,0.4-0.5l2.1-25.7c0.4,0,0.7,0,1.1,0
	c2.3,2.6,4,4.3,4,4.3l5.1,8.2l-3.2,33.9l8.6-0.8c0,0,4.9,68,6.5,73.3C816,443,816.1,444.1,816,445.1z"/>
<path class="st19" d="M844.3,368.8c-4.4,4.7-7.1,10.8-7.6,17.2c-0.9,10.9-4.7,11.6-4.7,11.6l-0.2,30.9c0,0-2.9,7.1,0.4,10.3
	s-27.2,8.9-27.2,8.9l-33.2,3.1l-4.6-34.5c0,0,6.3-7.6,12.2-10.5s12.2-10.5,7.4-28.5c-4.1-15.7,3.4-25.6,5.4-27.8
	c0.3-0.3,0.4-0.5,0.4-0.5l2.1-25.7c0,0,5.7-0.4,9.2,3.8c0.7,0.9,1.5,1.7,2.3,2.5c2.4,2.1,4.4,2.6,6.9,1.1c3.3-2,17.4-10.3,21.6-4.5
	S844.3,368.8,844.3,368.8z"/>
<path class="st19" d="M806.2,329.5l-3.4,17.6l-10.6,2.3c0.3-0.3,0.4-0.5,0.4-0.5l2.1-25.7c0,0,5.7-0.4,9.2,3.8
	C804.6,327.9,805.3,328.8,806.2,329.5z"/>
<path class="st7" d="M806.2,329.5l-3.4,17.6l-10.6,2.3c0.3-0.3,0.4-0.5,0.4-0.5l2.1-25.7c0,0,5.7-0.4,9.2,3.8
	C804.6,327.9,805.3,328.8,806.2,329.5z"/>
<path class="st7" d="M883.2,288v5.6l-23.4,6.5c0,0-2.1-1.2-5.5-2.8c2.5-0.9,14-5,19.9-7.8c2.2-1,3.6-1.8,3.6-2.2
	c0-0.2-0.2-0.5-0.6-0.7C880.9,287.5,883.2,288,883.2,288z"/>
<path class="st19" d="M915.8,319.9c0,0-24.3,24-40.6,29.5c0,0-22.7,10-30.8,19.3l-15.2-37.6l5.6-5c0,0,8,3.6,14.2,1.2
	s13.1-4.1,13.1-4.1s11.4-5.8,16.5-6.9c4.5-1,1.9-6.6-3-9.2c-0.6-0.3-1.3-0.6-2-0.8c0,0-2.5,4.7-7.4,2.7c-1.9-0.9-3.6-2.1-5-3.5l0,0
	c-2.2-2.1-4.2-4.5-6-7c0,0,13.7-4.9,20.4-7.9c2.2-1,3.6-1.8,3.6-2.2c0-1.6-13.4-5.1-13.4-5.1s10.3-6.7,15.2-3.5c0,0-2.6,2.5,0,4.4
	s33.4,19.7,33.4,19.7S928.8,308.9,915.8,319.9z"/>
<path class="st7" d="M890,303.1l-14.7,4.1c-0.6-0.3-1.3-0.6-2-0.8c0,0-2.5,4.7-7.4,2.7c-1.9-0.9-3.6-2.1-5-3.5l0,0
	c-1.8-1.8-3.4-3.8-4.9-5.9c0,0,13.7-4.9,20.4-7.9L890,303.1z"/>
<path class="st19" d="M888.9,302l-15.6,4.4c0,0-2.5,4.7-7.4,2.7s-11-10.5-11-10.5s13.7-4.9,20.4-7.9L888.9,302z"/>
<path class="st8" d="M888.9,301.6l-15.6,4.4c0,0-2.5,4.7-7.4,2.7s-11-10.5-11-10.5s13.7-4.9,20.4-7.9L888.9,301.6z"/>
<path class="st7" d="M623.4,576.5l29.2,16.6c0,0-11.2,7.8-21.4,16.4c-10.6-5.3-20.6-10.2-28.3-14.8
	C611.7,590.2,623.4,576.5,623.4,576.5z"/>
<path class="st7" d="M785.5,688c-7.7,0.6-20-2.1-20-2.1s-5-0.4-12.6-1.9c-0.1-2.5-0.3-5.4-0.7-8.7c-1.4-11.4,0-28.3,0-28.3l27.5,1.4
	l4.6,29.9C785.3,680,785.7,683.5,785.5,688z"/>
<path class="st6" d="M817.4,559.9c-4.3,8.7-14.7,44.6-14.7,44.6c-2.5,6.5-5.5,12.7-9,18.8c-4.9,8.2-6.8,25.3-9.5,39.2
	s2.7,10.6,3,17.7s-26.1,1.4-26.1,1.4s-53.1-4.6-72.9-34s-86.5-49.8-101.6-65.9s2.3-10.9,0.4-20.4s4.3-18.5,4.3-18.5
	s22.9-9.8,26.1-15s20.7-19.3,20.7-19.3s16.9-10.1,18.8-13.1s22-14.1,28.3-16.6s11.4-12.5,11.4-12.5s4.1,0,9.3-6.5
	s29.4-14.7,29.4-14.7c46.6,25.6,75.3,17.3,75.3,17.3l1.5,5.8C838.4,494.6,821.8,551.2,817.4,559.9z"/>
<path class="st7" d="M812,468.2c0,0-35.1,16.9-76.7-23.1c46.5,25.6,75.3,17.3,75.3,17.3L812,468.2z"/>
<path class="st7" d="M751.6,497.3c0,0-40,77.6-42.7,80.6S748.9,496.7,751.6,497.3z"/>
<path class="st7" d="M773.6,488.9c0,0-27.2,57.4-25.6,64.5C748,553.4,774.5,498.1,773.6,488.9z"/>
<path class="st7" d="M795.4,500.8c0,0-2.4,30.5,9.3,46L795.4,500.8z"/>
<path class="st7" d="M808.7,500.8c0,0,3.8,25.6,7.3,30.5L808.7,500.8z"/>
<polygon class="st7" points="722.2,488.9 679.2,512.5 696.1,512.5 "/>
<path class="st7" d="M785.5,278.8c-2.1,1.8-3.6,4.5-6.3,5.2c-1.9,0.5-3.9-0.1-5.8-0.7c-4.8-1.4-10.1-2.2-14.5-0.1
	c-6.4,3.1-9,11.2-15.4,14.3c-3.2,1.6-6.9,1.6-10.1,0.2c-2.8-1.3-5-3.6-6.1-6.5c-1.9-4.9-0.1-10.7,3.3-14.6s8.3-6.4,13.3-8.2
	c12.9-4.7,26.9-5.5,40.6-6.3c1.1-0.2,2.2,0,3.3,0.4c2.3,1.3,6.8,8.5,6.4,11.3C793.8,277.5,785.5,275.9,785.5,278.8z"/>
<path class="st18" d="M785.5,277.7c-2.1,1.8-3.6,4.5-6.3,5.2c-1.9,0.5-3.9-0.1-5.8-0.7c-4.8-1.4-10.1-2.2-14.5-0.1
	c-6.4,3.1-9,11.2-15.4,14.3c-2,1-4.1,1.4-6.3,1.2c-1.3-0.1-2.6-0.5-3.8-1c-2.8-1.3-5-3.6-6.1-6.5c-1.9-4.9-0.1-10.7,3.3-14.6
	s8.3-6.4,13.3-8.2c12.9-4.7,26.9-5.5,40.6-6.3c1.1-0.2,2.2,0,3.3,0.4c2.3,1.3,6.8,8.5,6.4,11.3C793.8,276.5,785.5,274.8,785.5,277.7
	z"/>
<path class="st17" d="M612.8,321.8l-2,18.1l-6.1-2.7l-33-14.5c0,0-23.3,2.2-27.5-16.2s25.7-3.5,27.3-2.3s5.3,3.3,5.3,3.3l30.5,12.1
	L612.8,321.8z"/>
<path class="st7" d="M612.8,321.8l-2,18.1l-6.1-2.7c0.2-8.1,1.2-15.6,2.8-17.6L612.8,321.8z"/>
<path class="st7" d="M778.6,416.6l-1.5,37.4l-37.9-2.9c0.5-2.9,6.8-39.7-2.2-47.4c-9.4-8-9.6-33.9-9.6-33.9s12.1-18.3,14.5-22.7
	s20.6-9.9,20.6-9.9c0.5-1.7,0.8-3.6,0.7-5.4c0.8,1.2,1.4,2.4,1.9,3.7c0.8,6.7-1.2,11.6-7.9,15.9c-0.6,0.4-1.2,0.8-1.9,1.1
	c-1.1,0.6-2.2,1.2-3.5,1.8l-0.6,0.3c-11.4,5.1-13.1,12.5-13.1,12.5c-3.4,6-4.5,13.1-2.9,19.9C738,398.2,778.6,416.6,778.6,416.6z"/>
<path class="st19" d="M776.4,416.6L775,454l-42.6-3.3c0,0-0.5-14,1.6-20s-1.3-27.8-1.3-27.8c-20.1-16.7-12.9-33.4-12.9-33.4
	s-53-1.6-54.1-3.1s-19.6-8.5-19.6-8.5s-19.4-2.4-22.3-4.7c-1.1-0.9-2.2-1.7-3.4-2.4c-0.4-0.2-0.7-0.4-1.1-0.5l0.2,12.2
	c-0.1,0-0.3,0-0.4,0h-0.2c-3.1,0.1-6.1-0.6-8.8-2.1c-4.7-2.7-4-39.4,0-41.2c0.8-0.3,1.6-0.4,2.4-0.3c3.3,0.2,7.6,2.5,9.6,3.7
	l0.8,0.5l0.3,0.2c0,0,24.7,6.1,29.9,9.8s42.5,4.2,42.5,4.2s16.9,1.7,18.7-0.9s26.3-9.7,28.8-6.4s8.3,2,8.3,2
	c3.5-5.3,6.6-3.8,8.7-1.3c1.2,1.5,2.2,3.2,2.9,5c0.9,7.3-1.6,12.5-9.8,17c-1.2,0.7-2.6,1.4-4.1,2c-11.4,5.1-13.1,12.5-13.1,12.5
	c-3.5,6-4.5,13.1-2.9,19.9C735.8,398.2,776.4,416.6,776.4,416.6z"/>
<path class="st7" d="M612.5,318.9c-0.5,0-0.9,0.1-1.3,0.3c-4,1.8-4.7,38.5,0,41.2c2.4,1.3,5,2.1,7.7,2.2h0.2c0.1,0,0.3,0,0.4,0
	l-0.2-12.2c0.4,0.2,0.7,0.3,1.1,0.5v-0.5c-3.4-9-2.5-19.1,2.4-27.4L612.5,318.9z"/>
<path class="st19" d="M619.3,350.5l0.2,12.2c-3.3,0.2-6.6-0.5-9.4-2.2c-4.7-2.7-4-39.4,0-41.2c3.2-1.4,9.5,1.9,12,3.4
	C616.8,331,615.8,341.3,619.3,350.5z"/>
<path class="st8" d="M619.3,350.5l0.2,12.2c-3.3,0.2-6.6-0.5-9.4-2.2c-4.7-2.7-4-39.4,0-41.2c3.2-1.4,9.5,1.9,12,3.4
	C616.8,331,615.8,341.3,619.3,350.5z"/>
<path class="st19" d="M753.1,352.6l-6.7-4.8l13.6-17.2c1.2,1.5,2.2,3.2,2.9,5C763.8,342.8,761.3,348,753.1,352.6z"/>
<path class="st7" d="M753.1,352.2l-6.7-4.8l13.6-17.2c1.2,1.5,2.2,3.2,2.9,5C763.8,342.5,761.3,347.6,753.1,352.2z"/>
<path class="st7" d="M785.5,275.6c-2.1,1.8-3.7,4.5-6.3,5.2c-1.9,0.5-3.9-0.1-5.8-0.6c-4.8-1.4-10.1-2.2-14.5-0.1
	c-6.4,3.1-9,11.2-15.4,14.3c-2,1-4.1,1.4-6.3,1.2c-4.5-0.4-8.3-3.3-9.9-7.5c-0.4-1-0.6-2.1-0.7-3.2c-0.2,1.8,0.1,3.6,0.7,5.3
	c1.1,2.9,3.3,5.2,6.1,6.5c1.2,0.5,2.5,0.9,3.8,1c2.2,0.2,4.3-0.2,6.3-1.2c6.3-3.1,9-11.3,15.4-14.3c4.5-2.1,9.8-1.3,14.5,0.1
	c1.9,0.5,3.9,1.2,5.8,0.7c2.7-0.7,4.2-3.4,6.3-5.2c0-3,8.2-1.3,8.8-5c0-0.5,0-1.1-0.2-1.6C792.8,274.1,785.5,272.8,785.5,275.6z"/>
<path class="st7" d="M771.8,361.3c0,0,4.5,8.8,0.7,12.5c0,0,3-12.9,5.7-13"/>
<path class="st17" d="M554.7,297.7c0,0,23.7,15.7,8.7,20.6S554.7,297.7,554.7,297.7z"/>
</svg>
